<?xml version="1.0" encoding="UTF-8" standalone="no"?>
<svg
   xmlns:dc="http://purl.org/dc/elements/1.1/"
   xmlns:cc="http://creativecommons.org/ns#"
   xmlns:rdf="http://www.w3.org/1999/02/22-rdf-syntax-ns#"
   xmlns:svg="http://www.w3.org/2000/svg"
   xmlns="http://www.w3.org/2000/svg"
   xmlns:sodipodi="http://sodipodi.sourceforge.net/DTD/sodipodi-0.dtd"
   xmlns:inkscape="http://www.inkscape.org/namespaces/inkscape"
   inkscape:version="1.0beta2 (2b71d25, 2019-12-03)"
   sodipodi:docname="fresh.svg"
   xml:space="preserve"
   style="enable-background:new 0 0 1230 300;"
   viewBox="0 0 1230 300"
   y="0px"
   x="0px"
   id="Calque_1"
   version="1.1"><metadata
   id="metadata44"><rdf:RDF><cc:Work
       rdf:about=""><dc:format>image/svg+xml</dc:format><dc:type
         rdf:resource="http://purl.org/dc/dcmitype/StillImage" /></cc:Work></rdf:RDF></metadata><defs
   id="defs42" /><sodipodi:namedview
   inkscape:current-layer="Calque_1"
   inkscape:window-maximized="1"
   inkscape:window-y="23"
   inkscape:window-x="0"
   inkscape:cy="90.96"
   inkscape:cx="653.32001"
   inkscape:zoom="0.91463415"
   showgrid="false"
   id="namedview40"
   inkscape:window-height="755"
   inkscape:window-width="1280"
   inkscape:pageshadow="2"
   inkscape:pageopacity="0"
   guidetolerance="10"
   gridtolerance="10"
   objecttolerance="10"
   borderopacity="1"
   inkscape:document-rotation="0"
   bordercolor="#666666"
   pagecolor="#ffffff" />
<style
   id="style10"
   type="text/css">
	.st0{fill:#344358;}
	.st1{fill:#F39208;}
	.st2{fill:#FCC010;}
	.st3{fill:#F49619;}
	.st4{fill:#EC630E;}
	.st5{fill:#CBEAFC;}
	.st6{fill:#77C2E0;}
	.st7{fill:#F9DE6A;}
	.st8{fill:#C6781A;}
	.st9{fill:#010202;}
</style>
<circle
   r="25.9"
   cy="183.4"
   cx="1103.4"
   class="st0"
   id="XMLID_2_" />
<circle
   r="30.8"
   cy="118.9"
   cx="1157.3"
   class="st1"
   id="XMLID_19_" />
<circle
   r="13"
   cy="203.1"
   cx="1161.7"
   class="st0"
   id="XMLID_20_" />
<path
   d="M37.7,140.8C6.9,110,6.9,60.1,37.7,29.3s80.8-30.8,111.6,0L37.7,140.8z"
   class="st2"
   id="XMLID_59_" />
<path
   d="M136.7,41.9l-15.4,15.4l-51.8,51.8l-19.1,19.1c-23.9-23.9-23.9-62.5,0-86.4  C74.2,18,112.9,18,136.7,41.9z"
   class="st3"
   id="XMLID_58_" />
<path
   d="M121.3,57.3l-51.8,51.8L66,64.8c-0.3-4.1,2.9-7.6,7-7.6H121.3L121.3,57.3z"
   class="st4"
   id="XMLID_57_" />
<polygon
   points="228.8,65.5 226.6,94 224.1,125.6 211.5,286.7 91.6,286.7 79.3,128.4 77.7,108.5   74.4,65.5 "
   class="st5"
   id="XMLID_56_" />
<rect
   height="37.8"
   width="37.8"
   class="st6"
   y="114.5"
   x="133.2"
   id="XMLID_55_" />
<polygon
   points="228.8,65.5 226.6,94 211.5,286.7 201.1,286.7 216.2,94 218.4,65.5 "
   class="st6"
   id="XMLID_54_" />
<path
   d="M224.1,125.6l-12.6,161.1H91.6L79.3,128.4c11.4-4.4,27.9-6.9,48.8-0.6c31.4,9.5,57,3.3,85.6-0.9  C217.1,126.5,220.6,126,224.1,125.6z"
   class="st1"
   id="XMLID_53_" />
<path
   d="M171,132.6v19.7h-37.8v-23C146.5,132.7,158.9,133.3,171,132.6z"
   class="st7"
   id="XMLID_52_" />
<path
   d="M224.1,125.6l-12.6,161.1h-10.4L213.6,127C217.1,126.5,220.6,126,224.1,125.6z"
   class="st8"
   id="XMLID_51_" />
<rect
   height="37.8"
   width="37.8"
   class="st7"
   transform="matrix(0.3456 -0.9384 0.9384 0.3456 -87.1514 241.7549)"
   y="164.5"
   x="110.9"
   id="XMLID_50_" />
<path
   d="M231.9,62.7c-0.8-0.9-1.9-1.4-3.1-1.4H123.3l16.4-16.4c0,0,0,0,0,0c0,0,0,0,0,0l12.6-12.6  c1.7-1.7,1.7-4.3,0-6c-32.4-32.4-85.1-32.4-117.6,0C20.2,40.9,11.6,60.2,10.5,80.8c-0.1,2.3,1.7,4.3,4,4.4c0.1,0,0.1,0,0.2,0  c2.2,0,4.1-1.8,4.2-4c1-18.5,8.7-35.8,21.8-48.9c14.1-14.1,32.8-21.9,52.8-21.9c18.5,0,36,6.7,49.7,19l-6.6,6.6  C111,13.4,71.8,14.4,47.3,38.9c-24.5,24.5-25.4,63.7-2.9,89.3l-6.6,6.6c-9.6-10.7-15.8-23.8-18-38.1c-0.4-2.3-2.5-3.9-4.8-3.5  c-2.3,0.4-3.9,2.5-3.5,4.8c2.7,17.5,10.8,33.3,23.3,45.8c0.8,0.8,1.9,1.2,3,1.2c1.1,0,2.2-0.4,3-1.2l32.9-32.9l1.4,17.7  c0,0,0,0.1,0,0.1l8.7,111c0.2,2.2,2,3.9,4.2,3.9c0.1,0,0.2,0,0.3,0c2.3-0.2,4.1-2.2,3.9-4.6l-8.4-107.7c13.2-4.3,27.7-4.1,43.1,0.6  c0.7,0.2,1.4,0.4,2.1,0.6v19.8c0,2.3,1.9,4.2,4.2,4.2H171c2.3,0,4.2-1.9,4.2-4.2v-15.8c9.4-0.8,18.7-2.2,28.1-3.7  c5.3-0.8,10.7-1.7,16.2-2.4l-11.9,152H95.6l-2.1-27c-0.2-2.3-2.2-4.1-4.6-3.9c-2.3,0.2-4.1,2.2-3.9,4.6l2.4,30.9  c0.2,2.2,2,3.9,4.2,3.9h119.9c2.2,0,4-1.7,4.2-3.9L228.4,126c0,0,0,0,0,0l2.7-34.7c0.2-2.3-1.6-4.4-3.9-4.6  c-2.3-0.2-4.4,1.6-4.6,3.9l-2.4,31.2c-6.2,0.8-12.3,1.8-18.2,2.7c-9,1.4-17.9,2.8-26.8,3.6v-13.5c0-2.3-1.9-4.2-4.2-4.2h-37.8  c-2.3,0-4.2,1.9-4.2,4.2v9.2c-16-4.8-31.7-5.1-45.9-1l-4.1-52.9h145.3l-0.4,4.5c-0.2,2.3,1.6,4.4,3.9,4.6c2.3,0.2,4.4-1.6,4.6-3.9  l0.7-9.1C233.2,64.7,232.7,63.5,231.9,62.7z M166.7,148.1h-29.3v-13.5c8.7,1.8,16.9,2.5,25,2.5c1.5,0,2.9,0,4.4-0.1L166.7,148.1  L166.7,148.1z M166.7,118.8v9.8c-9.5,0.3-19.1-0.3-29.3-2.6v-7.2L166.7,118.8L166.7,118.8z M111.3,61.3H98.7V28.5  c11.5,1,22.7,5.5,31.9,13.5L111.3,61.3z M70.3,67.8l1.1,14H36.8C37.5,69.7,42,57.7,50.4,48L70.3,67.8z M50.4,122.2  c-8-9.2-12.5-20.4-13.5-31.9H72l0.7,9.6L50.4,122.2z M75.8,61.3L56.4,42c9.8-8.4,21.7-13,33.8-13.6v33H75.8z"
   class="st9"
   id="XMLID_42_" />
<path
   d="M155.5,168.2L120,155.1c-1.1-0.4-2.2-0.3-3.2,0.1c-1,0.5-1.8,1.3-2.2,2.4l-13.1,35.5  c-0.8,2.2,0.3,4.6,2.5,5.4l35.5,13.1c0.5,0.2,1,0.3,1.5,0.3c1.7,0,3.3-1.1,4-2.8l13.1-35.5C158.8,171.4,157.7,169,155.5,168.2z   M138.5,202.2l-27.5-10.1l10.1-27.5l27.5,10.1L138.5,202.2z"
   class="st9"
   id="XMLID_39_" />
<path
   d="M195.2,173.6c2.3,0,4.2-1.9,4.2-4.2v-0.9c0-2.3-1.9-4.2-4.2-4.2s-4.2,1.9-4.2,4.2v0.9  C191,171.7,192.8,173.6,195.2,173.6z"
   class="st9"
   id="XMLID_38_" />
<path
   d="M136.7,255.7c-2.3,0-4.2,1.9-4.2,4.2v0.9c0,2.3,1.9,4.2,4.2,4.2c2.3,0,4.2-1.9,4.2-4.2v-0.9  C141,257.5,139.1,255.7,136.7,255.7z"
   class="st9"
   id="XMLID_37_" />
<path
   d="M152.1,271.8c2.3,0,4.2-1.9,4.2-4.2v-0.9c0-2.3-1.9-4.2-4.2-4.2s-4.2,1.9-4.2,4.2v0.9  C147.8,269.9,149.7,271.8,152.1,271.8z"
   class="st9"
   id="XMLID_36_" />
<path
   d="M187.1,227.6c-2.3,0-4.2,1.9-4.2,4.2v0.9c0,2.3,1.9,4.2,4.2,4.2c2.3,0,4.2-1.9,4.2-4.2v-0.9  C191.3,229.5,189.5,227.6,187.1,227.6z"
   class="st9"
   id="XMLID_35_" />
<path
   d="M152.1,220.6v-0.9c0-2.3-1.9-4.2-4.2-4.2c-2.3,0-4.2,1.9-4.2,4.2v0.9c0,2.3,1.9,4.2,4.2,4.2  C150.2,224.8,152.1,223,152.1,220.6z"
   class="st9"
   id="XMLID_34_" />
<path
   d="M181.6,158.8c-2.3,0-4.2,1.9-4.2,4.2v0.9c0,2.3,1.9,4.2,4.2,4.2s4.2-1.9,4.2-4.2V163  C185.8,160.7,183.9,158.8,181.6,158.8z"
   class="st9"
   id="XMLID_33_" />
<g
   id="XMLID_60_">
	
	
	
	
	
</g>
<text
   id="text52"
   y="218.66666"
   x="341.12"
   style="font-style:normal;font-weight:normal;font-size:133.333px;line-height:1.25;font-family:sans-serif;fill:#000000;fill-opacity:1;stroke:none"
   xml:space="preserve"><tspan
     style="font-style:normal;font-variant:normal;font-weight:bold;font-stretch:normal;font-family:sans-serif;-inkscape-font-specification:'sans-serif Bold'"
     y="218.66666"
     x="341.12"
     id="tspan50"
     sodipodi:role="line">适兕<tspan
   id="tspan54"
   style="fill:#ff6600">工</tspan>作室</tspan></text></svg>
